<?xml version="1.0" encoding="utf-8"?>
<!-- Generator: Adobe Illustrator 18.1.1, SVG Export Plug-In . SVG Version: 6.00 Build 0)  -->
<!DOCTYPE svg PUBLIC "-//W3C//DTD SVG 1.1//EN" "http://www.w3.org/Graphics/SVG/1.1/DTD/svg11.dtd">
<svg version="1.1" id="Layer_1" xmlns="http://www.w3.org/2000/svg" xmlns:xlink="http://www.w3.org/1999/xlink" x="0px" y="0px"
	 viewBox="0 0 60 60" enable-background="new 0 0 60 60" xml:space="preserve">
<g>
	<path fill="#1A46AA" d="M60,17.4c0,0.6-0.2,1-0.6,1.4l-28.1,28c-0.3,0.3-0.9,0.6-1.4,0.6c-0.6,0-1-0.2-1.4-0.6l-28-27.9
		C0.2,18.5,0,18,0,17.4s0.2-1,0.6-1.4l3-3c0.5-0.3,0.9-0.6,1.4-0.6c0.6,0,1,0.2,1.4,0.6L30,36.6L53.6,13c0.5-0.3,0.9-0.6,1.4-0.6
		c0.6,0,1,0.2,1.4,0.6l3,3C59.8,16.5,60,17,60,17.4z"/>
</g>
</svg>
